<?xml version="1.0" encoding="UTF-8" standalone="no"?>
<svg
   xmlns:dc="http://purl.org/dc/elements/1.1/"
   xmlns:cc="http://creativecommons.org/ns#"
   xmlns:rdf="http://www.w3.org/1999/02/22-rdf-syntax-ns#"
   xmlns:svg="http://www.w3.org/2000/svg"
   xmlns="http://www.w3.org/2000/svg"
   xmlns:sodipodi="http://sodipodi.sourceforge.net/DTD/sodipodi-0.dtd"
   xmlns:inkscape="http://www.inkscape.org/namespaces/inkscape"
   viewBox="0 0 48 48"
   id="svg3283"
   version="1.1"
   inkscape:version="0.48.5 r10040"
   width="100%"
   height="100%"
   sodipodi:docname="teeworlds.svg">
  <metadata
     id="metadata3342">
    <rdf:RDF>
      <cc:Work
         rdf:about="">
        <dc:format>image/svg+xml</dc:format>
        <dc:type
           rdf:resource="http://purl.org/dc/dcmitype/StillImage" />
      </cc:Work>
    </rdf:RDF>
  </metadata>
  <sodipodi:namedview
     pagecolor="#ffffff"
     bordercolor="#666666"
     borderopacity="1"
     objecttolerance="10"
     gridtolerance="10"
     guidetolerance="10"
     inkscape:pageopacity="0"
     inkscape:pageshadow="2"
     inkscape:window-width="1600"
     inkscape:window-height="834"
     id="namedview3340"
     showgrid="false"
     inkscape:zoom="3.4766083"
     inkscape:cx="39.379471"
     inkscape:cy="39.203507"
     inkscape:window-x="0"
     inkscape:window-y="27"
     inkscape:window-maximized="1"
     inkscape:current-layer="svg3283" />
  <defs
     id="defs3285">
    <linearGradient
       id="linearGradient3764"
       x1="1"
       x2="47"
       gradientUnits="userSpaceOnUse"
       gradientTransform="matrix(0,-1,1,0,-1.5e-6,47.999998)">
      <stop
         stop-color="#ecc200"
         stop-opacity="1"
         id="stop3288" />
      <stop
         offset="1"
         stop-color="#ffd000"
         stop-opacity="1"
         id="stop3290" />
    </linearGradient>
    <clipPath
       id="clipPath-719651006">
      <g
         transform="translate(0,-1004.3622)"
         id="g3293">
        <path
           d="m -24 13 c 0 1.105 -0.672 2 -1.5 2 -0.828 0 -1.5 -0.895 -1.5 -2 0 -1.105 0.672 -2 1.5 -2 0.828 0 1.5 0.895 1.5 2 z"
           transform="matrix(15.333333,0,0,11.5,414.99999,878.8622)"
           fill="#1890d0"
           id="path3295" />
      </g>
    </clipPath>
    <clipPath
       id="clipPath-728235023">
      <g
         transform="translate(0,-1004.3622)"
         id="g3298">
        <path
           d="m -24 13 c 0 1.105 -0.672 2 -1.5 2 -0.828 0 -1.5 -0.895 -1.5 -2 0 -1.105 0.672 -2 1.5 -2 0.828 0 1.5 0.895 1.5 2 z"
           transform="matrix(15.333333,0,0,11.5,414.99999,878.8622)"
           fill="#1890d0"
           id="path3300" />
      </g>
    </clipPath>
  </defs>
  <g
     id="g3314" />
  <g
     transform="matrix(0.4850698,0,0,0.4850698,-781.68154,-153.51837)"
     id="g3344">
    <path
       inkscape:connector-curvature="0"
       style="color:#000000;fill:none;stroke:#6ac1ff;stroke-width:3.18536258;stroke-linecap:round;stroke-linejoin:round;stroke-miterlimit:4;stroke-opacity:1;stroke-dashoffset:0;marker:none;visibility:visible;display:inline;overflow:visible;enable-background:accumulate"
       d="m 1689.7248,384.56272 c 0,4.0048 -12.9709,7.2512 -28.9714,7.2512 -16.0004,0 -28.9713,-3.2464 -28.9713,-7.2512 0,-4.0046 12.9709,-7.2511 28.9713,-7.2511 16.0005,0 28.9714,3.2465 28.9714,7.2511 z"
       id="path3298-6-5-2-4" />
    <path
       sodipodi:nodetypes="sssss"
       inkscape:connector-curvature="0"
       id="path3300-9-8-3-3"
       d="m 1660.8042,374.09562 c -21.042,0 -38.1034,5.005 -38.1034,11.165 0,6.1599 17.0614,11.1341 38.1034,11.1341 21.0418,0 38.1033,-4.9742 38.1033,-11.1341 0,-6.16 -17.0615,-11.165 -38.1033,-11.165 z"
       style="color:#000000;fill:none;stroke:#4a9ce6;stroke-width:3.18536258;stroke-linecap:round;stroke-linejoin:round;stroke-miterlimit:4;stroke-opacity:1;stroke-dasharray:none;stroke-dashoffset:0;marker:none;visibility:visible;display:inline;overflow:visible;enable-background:accumulate" />
    <g
       transform="matrix(1.2741451,0,0,1.2741451,-19.179905,-793.33602)"
       id="g8744-1-2-0-2">
      <path
         inkscape:connector-curvature="0"
         style="fill:#000000;fill-opacity:1;fill-rule:nonzero;stroke:#000000;stroke-width:2.2043283;stroke-linecap:butt;stroke-linejoin:round;stroke-miterlimit:4;stroke-opacity:1;stroke-dasharray:none"
         id="path468-4-1-4-0"
         d="m 1301.1603,920.95868 c 0,-4.10674 4.9224,-6.13008 9.5679,-6.05721 4.6456,0.0732 10.7334,2.74159 10.7334,6.48293 0,3.74044 -6.3572,3.56613 -10.7334,3.56613 -2.2043,0 -6.2112,0.27933 -7.9355,-0.69884 -1.7003,-0.96573 -1.7055,-3.29301 -1.6324,-3.29301 z" />
      <path
         inkscape:connector-curvature="0"
         style="fill:#a67e33;fill-opacity:1;fill-rule:nonzero;stroke:#000000;stroke-width:1.76346242;stroke-linecap:butt;stroke-linejoin:miter;stroke-miterlimit:4;stroke-opacity:1;stroke-dasharray:none"
         id="path472-7-0-6-5"
         d="m 1301.1603,920.95868 c 0,-4.10674 4.9224,-6.13008 9.5679,-6.05721 4.6456,0.0732 10.7334,2.74159 10.7334,6.48293 0,3.74044 -6.3572,3.56613 -10.7334,3.56613 -2.2043,0 -6.2112,0.27933 -7.9355,-0.69884 -1.7003,-0.96573 -1.7055,-3.29301 -1.6324,-3.29301 z" />
      <path
         inkscape:connector-curvature="0"
         style="fill:#000000;fill-opacity:1;fill-rule:evenodd;stroke:#000000;stroke-width:2.95030189;stroke-linecap:butt;stroke-linejoin:round;stroke-miterlimit:4;stroke-opacity:1;stroke-dasharray:none"
         id="path524-8-2-0-1"
         d="m 1335.7418,904.47069 c 0,10.16936 -8.2434,18.41259 -18.4125,18.41259 -10.1695,0 -18.4129,-8.24323 -18.4129,-18.41259 0,-10.1694 8.2434,-18.41293 18.4129,-18.41293 10.1691,0 18.4125,8.24353 18.4125,18.41293 z" />
      <path
         inkscape:connector-curvature="0"
         style="fill:#ffa500;fill-opacity:1;fill-rule:evenodd;stroke:#000000;stroke-width:1.31124532;stroke-linecap:butt;stroke-linejoin:miter;stroke-miterlimit:4;stroke-opacity:1;stroke-dasharray:none"
         id="path528-4-3-9-8"
         d="m 1335.7418,904.47069 c 0,10.16936 -8.2434,18.41259 -18.4125,18.41259 -10.1695,0 -18.4129,-8.24323 -18.4129,-18.41259 0,-10.1694 8.2434,-18.41293 18.4129,-18.41293 10.1691,0 18.4125,8.24353 18.4125,18.41293 z" />
      <path
         d="m 1333.0888,896.31828 c 0.1067,0.81406 0.2052,1.63468 0.2052,2.47993 0,10.49872 -8.5125,19.03322 -19.0126,19.03322 -4.8301,0 -9.1847,-1.86446 -12.5391,-4.83508 3.0222,5.51853 8.8526,9.28056 15.5906,9.28056 9.8386,0 17.7845,-7.96528 17.7845,-17.80359 0,-2.95063 -0.7602,-5.70596 -2.0286,-8.15504 z"
         id="path530-6-0-0-5"
         style="opacity:0.3;fill:#d40000;fill-opacity:1;fill-rule:evenodd;stroke:none"
         inkscape:connector-curvature="0" />
      <path
         inkscape:connector-curvature="0"
         style="fill:#000000;fill-opacity:1;fill-rule:nonzero;stroke:#000000;stroke-width:2.2043283;stroke-linecap:butt;stroke-linejoin:round;stroke-miterlimit:4;stroke-opacity:1;stroke-dasharray:none"
         id="path538-1-6-1-6"
         d="m 1316.4994,920.95868 c 0,-4.10674 4.9225,-6.13008 9.5682,-6.05721 4.6454,0.0732 10.7335,2.74159 10.7335,6.48293 0,3.74044 -6.3573,3.56613 -10.7335,3.56613 -2.2042,0 -6.2112,0.27933 -7.9371,-0.69884 -1.7003,-0.96573 -1.7039,-3.29301 -1.6311,-3.29301 z" />
      <path
         inkscape:connector-curvature="0"
         style="fill:#a67e33;fill-opacity:1;fill-rule:nonzero;stroke:#000000;stroke-width:1.76346242;stroke-linecap:butt;stroke-linejoin:miter;stroke-miterlimit:4;stroke-opacity:1;stroke-dasharray:none"
         id="path542-8-1-7-3"
         d="m 1316.4994,920.95868 c 0,-4.10674 4.9215,-6.13008 9.5682,-6.05721 4.6454,0.0732 10.7335,2.74159 10.7335,6.48293 0,3.74044 -6.3573,3.56613 -10.7335,3.56613 -2.2042,0 -6.2112,0.27933 -7.9371,-0.69884 -1.7003,-0.96573 -1.7039,-3.29301 -1.6311,-3.29301 z" />
      <path
         id="path3308-6-4-3-3-2"
         d="m 1323.8763,903.05058 c 0,3.19142 -1.3204,5.77859 -2.9492,5.77859 -1.6288,0 -2.9492,-2.58717 -2.9492,-5.77859 0,-3.19142 1.3204,-5.77858 2.9492,-5.77858 1.6288,0 2.9492,2.58716 2.9492,5.77858 z"
         style="color:#000000;fill:#1a1a1a;fill-opacity:1;fill-rule:nonzero;stroke:none;stroke-width:4;marker:none;visibility:visible;display:inline;overflow:visible;enable-background:accumulate"
         inkscape:connector-curvature="0"
         sodipodi:nodetypes="sssss" />
      <path
         inkscape:connector-curvature="0"
         style="color:#000000;fill:#000000;fill-opacity:1;fill-rule:nonzero;stroke:none;stroke-width:4;marker:none;visibility:visible;display:inline;overflow:visible;enable-background:accumulate"
         d="m 1320.9351,897.27063 c -1.6288,0 -2.9479,2.5831 -2.9479,5.77452 0,2.7504 0.9879,5.06094 2.3012,5.6474 -0.6631,-1.06351 -1.084,-2.67727 -1.084,-4.48523 0,-3.19142 1.319,-5.77452 2.9478,-5.77452 0.2251,0 0.436,0.0518 0.6467,0.14527 -0.5076,-0.81052 -1.1575,-1.30744 -1.8638,-1.30744 z"
         id="path3312-6-2-2-6-9"
         sodipodi:nodetypes="sscsscs" />
      <path
         id="path3308-6-8-1-0-0-0"
         d="m 1316.136,903.04599 c 0,3.19142 -1.3204,5.77859 -2.9493,5.77859 -1.6288,0 -2.9492,-2.58717 -2.9492,-5.77859 0,-3.19143 1.3204,-5.77859 2.9492,-5.77859 1.6289,0 2.9493,2.58716 2.9493,5.77859 z"
         style="color:#000000;fill:#1a1a1a;fill-opacity:1;fill-rule:nonzero;stroke:none;stroke-width:4;marker:none;visibility:visible;display:inline;overflow:visible;enable-background:accumulate"
         inkscape:connector-curvature="0"
         sodipodi:nodetypes="sssss" />
      <path
         inkscape:connector-curvature="0"
         style="color:#000000;fill:#000000;fill-opacity:1;fill-rule:nonzero;stroke:none;stroke-width:4;marker:none;visibility:visible;display:inline;overflow:visible;enable-background:accumulate"
         d="m 1313.1947,897.26603 c -1.6288,0 -2.9479,2.58311 -2.9479,5.77453 0,2.75039 0.988,5.06094 2.3013,5.64741 -0.6632,-1.06353 -1.0841,-2.67729 -1.0841,-4.48524 0,-3.19143 1.319,-5.77453 2.9479,-5.77453 0.2251,0 0.436,0.0518 0.6466,0.14528 -0.5076,-0.81052 -1.1574,-1.30745 -1.8638,-1.30745 z"
         id="path3312-6-9-0-8-5-7"
         sodipodi:nodetypes="sscsscs" />
      <path
         sodipodi:nodetypes="cccccc"
         inkscape:connector-curvature="0"
         id="path8730-0-4-4-0"
         d="m 1333.3573,917.61349 c -0.1667,3.16667 -3.5833,6.20833 -10.625,6.875 l 10,0 3.75,-1.625 -0.125,-3 z"
         style="opacity:0.3;fill:#000000;fill-opacity:1;stroke:none" />
    </g>
  </g>
</svg>
